# xmcd
#
# Track frame offsets:
#	150
#	16476
#	29938
#	44366
#	59995
#	73709
#	87341
#	103089
#	121920
#	134781
#	145973
#	159105
#	172142
#	186180
#
# Disc length: 2710 seconds
#
# Revision: 1
# Processed by: cddbd v1.5.2PL0 Copyright (c) Steve Scherf et al.
# Submitted via: EZCDAudioConverter 3.0.3.2
#
DISCID=db0a940e
DTITLE=Various Artist - Arena De Ouro 2015
DYEAR=2015
DGENRE=Sertanejo
TTITLE0=Luan Santana - Eu Não Merecia Isso
TTITLE1=Gusttavo Lima - Se É Pra Beber, Eu Bebo
TTITLE2=Munhoz and Mariano - Sou Bombeiro
TTITLE3=Marcos and Belutti - Então Foge
TTITLE4=Thaeme and Thiago - O Que Acontece Na Balada
TTITLE5=João Neto and Frederico - Presto Pouco
TTITLE6=Michel Teló - Implorando Pra Trair (Part. Esp.: Gusttavo Lima)
TTITLE7=Jads and Jadson - Colo (Part. Esp.: Victor and Leo)
TTITLE8=Conrado and Aleksandro - Camionete Inteira (Caminhonete Inteira)
TTITLE9=Loubet - Pode Apostar
TTITLE10=César Menotti and Fabiano - Mesa 22
TTITLE11=Pablo - Porque Homem Não Chora
TTITLE12=Léo Magalhães - CD's E Livros
TTITLE13=Di Paullo and Paulino - Amor De Primavera
EXTD=
EXTT0=
EXTT1=
EXTT2=
EXTT3=
EXTT4=
EXTT5=
EXTT6=
EXTT7=
EXTT8=
EXTT9=
EXTT10=
EXTT11=
EXTT12=
EXTT13=
PLAYORDER=
